<?xml version="1.0" standalone="no"?>
<!DOCTYPE svg PUBLIC "-//W3C//DTD SVG 20010904//EN"
 "http://www.w3.org/TR/2001/REC-SVG-20010904/DTD/svg10.dtd">
<svg version="1.0" xmlns="http://www.w3.org/2000/svg"
 width="100.000000pt" height="100.000000pt" viewBox="0 0 100.000000 100.000000"
 preserveAspectRatio="xMidYMid meet">
<metadata>
Created by potrace 1.11, written by Peter Selinger 2001-2013
</metadata>
<g transform="translate(0.000000,100.000000) scale(0.100000,-0.100000)"
fill="#000000" stroke="none">
<path d="M26 865 c-20 -10 -21 -19 -24 -308 -1 -194 1 -305 8 -317 10 -19 22
-20 203 -20 l192 0 1 -30 c1 -16 -2 -31 -7 -31 -5 -1 -13 -3 -19 -4 -5 -1 -18
-3 -27 -4 -22 -1 -83 -57 -83 -75 0 -10 48 -13 230 -13 180 0 230 3 230 13 0
18 -61 74 -82 75 -10 1 -22 3 -28 4 -5 1 -14 3 -19 4 -6 0 -9 13 -8 29 l2 27
189 3 c145 2 191 6 202 17 11 11 14 69 14 313 0 265 -2 301 -16 313 -13 11
-105 14 -477 14 -296 0 -468 -4 -481 -10z"/>
</g>
</svg>
